<svg xmlns="http://www.w3.org/2000/svg" viewBox="0 0 128 110.851" shape-rendering="geometricPrecision">
  <rect width="100%" height="100%" fill="#2d4157"></rect>

  <!-- Triângulos apontados para baixo: sempre mais claros -->

  <path fill="#2f4359" d="
      M-32,0 L0,0 L-16,27.713 Z
      M64,0 L96,0 L80,27.713 Z
      M48,27.713 L80,27.713 L64,55.426 Z
      M144,27.713 L176,27.713 L160,55.426 Z
      M0,55.426 L32,55.426 L16,83.138 Z
      M96,55.426 L128,55.426 L112,83.138 Z
      M-16,83.138 L16,83.138 L0,110.851 Z
      M80,83.138 L112,83.138 L96,110.851 Z
    "></path>

  <path fill="#30445a" d="
      M0,0 L32,0 L16,27.713 Z
      M96,0 L128,0 L112,27.713 Z
      M-16,27.713 L16,27.713 L0,55.426 Z
      M80,27.713 L112,27.713 L96,55.426 Z
      M32,55.426 L64,55.426 L48,83.138 Z
      M128,55.426 L160,55.426 L144,83.138 Z
      M16,83.138 L48,83.138 L32,110.851 Z
      M112,83.138 L144,83.138 L128,110.851 Z
    "></path>

  <path fill="#31455b" d="
      M32,0 L64,0 L48,27.713 Z
      M128,0 L160,0 L144,27.713 Z
      M16,27.713 L48,27.713 L32,55.426 Z
      M112,27.713 L144,27.713 L128,55.426 Z
      M-32,55.426 L0,55.426 L-16,83.138 Z
      M64,55.426 L96,55.426 L80,83.138 Z
      M48,83.138 L80,83.138 L64,110.851 Z
      M144,83.138 L176,83.138 L160,110.851 Z
    "></path>

  <!-- Triângulos apontados para cima: sempre mais escuros -->

  <path fill="#2b3f55" d="
      M0,0 L-16,27.713 L16,27.713 Z
      M96,0 L80,27.713 L112,27.713 Z
      M48,27.713 L32,55.426 L64,55.426 Z
      M144,27.713 L128,55.426 L160,55.426 Z
      M-32,55.426 L-48,83.138 L-16,83.138 Z
      M64,55.426 L48,83.138 L80,83.138 Z
      M160,55.426 L144,83.138 L176,83.138 Z
      M16,83.138 L0,110.851 L32,110.851 Z
      M112,83.138 L96,110.851 L128,110.851 Z
    "></path>

  <path fill="#2c4056" d="
      M-32,0 L-48,27.713 L-16,27.713 Z
      M64,0 L48,27.713 L80,27.713 Z
      M160,0 L144,27.713 L176,27.713 Z
      M16,27.713 L0,55.426 L32,55.426 Z
      M112,27.713 L96,55.426 L128,55.426 Z
      M32,55.426 L16,83.138 L48,83.138 Z
      M128,55.426 L112,83.138 L144,83.138 Z
      M-16,83.138 L-32,110.851 L0,110.851 Z
      M80,83.138 L64,110.851 L96,110.851 Z
      M176,83.138 L160,110.851 L192,110.851 Z
    "></path>

  <path fill="#2d4157" d="
      M32,0 L16,27.713 L48,27.713 Z
      M128,0 L112,27.713 L144,27.713 Z
      M-16,27.713 L-32,55.426 L0,55.426 Z
      M80,27.713 L64,55.426 L96,55.426 Z
      M176,27.713 L160,55.426 L192,55.426 Z
      M0,55.426 L-16,83.138 L16,83.138 Z
      M96,55.426 L80,83.138 L112,83.138 Z
      M48,83.138 L32,110.851 L64,110.851 Z
      M144,83.138 L128,110.851 L160,110.851 Z
    "></path>
</svg>